<?xml version="1.0" encoding="UTF-8"?>
<svg id="Layer_1" xmlns="http://www.w3.org/2000/svg" version="1.1" viewBox="0 0 291.3 300">
  <!-- Generator: Adobe Illustrator 29.7.1, SVG Export Plug-In . SVG Version: 2.1.1 Build 8)  -->
  <defs>
    <style>
      .st0 {
        fill: #086cb7;
      }

      .st1 {
        fill: #003764;
      }

      .st2 {
        fill: #009ade;
      }

      .st3 {
        fill: #b1e8fc;
      }
    </style>
  </defs>
  <path class="st3" d="M113.9,129.5c20.6-14.1,41.7-28,82.9-28,3.4,0,6.6.1,9.7.3,15.1-10,32.1-18.7,61.8-18.7,1.8,0,3.5,0,5.2.1C249.4,37.2,201.2,5.8,145.7,5.8c-56.5,0-105.4,32.5-129,79.8,41,8.6,51.7,38.1,97.2,43.9Z"/>
  <path class="st0" d="M113.9,129.5c-45.5-5.7-56.2-35.2-97.3-44C6.9,104.9,1.3,126.8,1.3,150c0,2.3.1,4.6.2,6.9,7.9,1.4,16.8,2.3,26.8,2.3,43,0,64.1-15,85.6-29.7Z"/>
  <path class="st0" d="M206.5,101.8c40.7,2.3,60.2,19.2,82.6,34-1.8-18.8-7.3-36.6-15.7-52.6-1.7-.1-3.4-.1-5.2-.1-29.6,0-46.5,8.7-61.7,18.7Z"/>
  <path class="st1" d="M196.8,101.5c-41.3,0-62.3,13.8-82.9,28-21.5,14.7-42.6,29.8-85.5,29.8-10,0-18.9-.8-26.8-2.3.3,7.4,1.2,14.6,2.7,21.6,9.1-1.5,19.1-2.3,30.3-2.3,45.3,0,71.1,13.4,94.2,28.6,30.8-13.6,44.4-39,95-39,29.8,0,46.8,8.8,62,18.9,2.8-11.1,4.2-22.8,4.2-34.7,0-4.8-.2-9.5-.7-14.2-22.4-14.9-41.9-31.7-82.6-34-3.3-.3-6.5-.4-9.9-.4Z"/>
  <path class="st0" d="M128.7,204.9c30.5,20.1,56.2,43.4,116,43.4,2.3,0,4.4,0,6.6-.1,16.4-17.6,28.4-39.3,34.3-63.4-15.2-10-32.2-18.9-62-18.9-50.6,0-64.1,25.4-94.9,39Z"/>
  <path class="st2" d="M128.7,204.9c-23.1-15.2-48.9-28.6-94.2-28.6-11.2,0-21.2.8-30.3,2.3,5.8,28.7,20,54.3,40.1,74.1,13.2-7.5,28.8-13.3,53-13.3,56.2,0,66.8,31.3,105.8,43,18.4-8,34.8-19.7,48.2-34.2-2.2.1-4.3.1-6.6.1-59.8,0-85.6-23.3-116-43.4Z"/>
  <path class="st1" d="M44.3,252.6c26.1,25.7,61.8,41.6,101.4,41.6,20.4,0,39.8-4.3,57.4-11.9-39.1-11.7-49.7-43-105.8-43-24.2.1-39.9,5.8-53,13.3Z"/>
</svg>